<svg width="40" height="40" viewBox="0 0 40 40" fill="none" xmlns="http://www.w3.org/2000/svg">
<path d="M20 0C8.95418 0 0 8.95418 0 20C0 31.0458 8.95418 40 20 40C31.0458 40 40 31.0458 40 20C40 8.95418 31.0458 0 20 0ZM21.727 30.8435V33.6604H19.0326V30.8752C14.6113 30.2697 12.6751 26.6369 12.6751 26.6369L15.4273 24.3347C15.4273 24.3347 17.1845 27.3937 20.3633 27.3937C22.1192 27.3937 23.4512 26.4538 23.4512 24.8479C23.4512 21.094 13.337 21.5495 13.337 14.5851C13.337 11.5577 15.7314 9.37663 19.0312 8.8606V6.04651H21.7256V8.8606C24.0264 9.16334 26.7511 10.3743 26.7511 12.9792V14.9773H23.1788V14.0085C23.1788 13.0095 21.9059 12.3435 20.4816 12.3435C18.6652 12.3435 17.3345 13.2517 17.3345 14.5232C17.3345 18.368 27.4487 17.4295 27.4487 24.7268C27.4487 27.7267 25.2085 30.3275 21.727 30.8435Z" fill="black"/>
</svg>
