<svg width="36" height="33" viewBox="0 0 36 33" fill="none" xmlns="http://www.w3.org/2000/svg">
<path fill-rule="evenodd" clip-rule="evenodd" d="M12.5416 28.6666V32.25H8.95828V28.6666H12.5416ZM5.375 28.6666V32.25H1.79164V28.6666H5.375ZM19.7083 28.6666V32.25H16.125V28.6666H19.7083ZM26.875 28.6666V32.25H23.2916V28.6666H26.875ZM34.0416 28.6666V32.25H30.4583V28.6666H34.0416ZM35.8333 5.375V26.875H0V5.375H35.8333ZM32.25 8.95836H3.58328V23.2916H32.25V8.95836ZM18.4379 10.6827L20.1685 11.1465L17.3862 21.5302L15.6556 21.0665L18.4379 10.6827ZM13.093 11.0868L14.3571 12.3517L10.5529 16.1558L14.3553 19.9573L13.093 21.2219L8.02538 16.1543L13.093 11.0868ZM22.7723 11.0833L27.8398 16.1509L22.7723 21.2185L21.5099 19.9538L25.3123 16.1524L21.5081 12.3482L22.7723 11.0833ZM12.5416 0V3.58336H8.95828V0H12.5416ZM5.375 0V3.58336H1.79164V0H5.375ZM19.7083 0V3.58336H16.125V0H19.7083ZM26.875 0V3.58336H23.2916V0H26.875ZM34.0416 0V3.58336H30.4583V0H34.0416Z" fill="#FFFEFE"/>
</svg>
